<?xml version="1.0" encoding="iso-8859-1"?>
<!-- Generator: Adobe Illustrator 19.0.0, SVG Export Plug-In . SVG Version: 6.00 Build 0)  -->
<svg version="1.1" id="Capa_1" xmlns="http://www.w3.org/2000/svg" xmlns:xlink="http://www.w3.org/1999/xlink" x="0px" y="0px"
	 viewBox="0 0 480 480" style="enable-background:new 0 0 480 480;" xml:space="preserve">
<g>
	<g>
		<path d="M472,256c4.422,0,8-3.582,8-8v-48c0-4.418-3.578-8-8-8h-11.016c-15.47-30.038-15.47-65.962,0-96H472
			c3.078,0,5.875-1.762,7.211-4.535c1.328-2.77,0.961-6.063-0.961-8.461c-16.492-20.609-16.492-49.398,0-70.008
			c1.922-2.398,2.289-5.691,0.961-8.461C477.875,1.762,475.078,0,472,0H72C54.352,0,40,14.355,40,32v32
			c0,9.244,4,17.518,10.288,23.365C29.93,98.089,16,119.436,16,144c0,19.121,8.473,36.262,21.81,48H32c-17.648,0-32,14.355-32,32
			c0,9.603,4.338,18.13,11.058,24C4.338,253.87,0,262.397,0,272v32c0,17.645,14.352,32,32,32h0.205C12.702,350.603,0,373.816,0,400
			c0,44.113,35.891,80,80,80h392c2.953,0,5.664-1.625,7.055-4.227s1.234-5.758-0.398-8.211c-27.367-41.043-27.367-94.082,0-135.125
			c1.633-2.453,1.789-5.609,0.398-8.211S474.953,320,472,320h-27.762c-13.568-19.352-13.568-44.648,0-64H472z M56,32
			c0-8.824,7.18-16,16-16h385.422c-10.094,20.184-10.094,43.816,0,64H72c-8.82,0-16-7.176-16-16V32z M32,144
			c0-26.469,21.531-48,48-48h363.139c-13.181,30.54-13.181,65.46,0,96H80C53.531,192,32,170.469,32,144z M32,320
			c-8.82,0-16-7.176-16-16v-32c0-8.824,7.18-16,16-16h393.496c-10.107,20.193-10.107,43.807,0,64H88h-8H32z M457.953,336
			c-21.102,40.117-21.102,87.883,0,128H80c-35.289,0-64-28.711-64-64s28.711-64,64-64h8H457.953z M32,240c-8.82,0-16-7.176-16-16
			s7.18-16,16-16h432v32H32z"/>
	</g>
</g>
<g>
	<g>
		<path d="M432,368v-16H80c-26.469,0-48,21.531-48,48s21.531,48,48,48h352v-16H80v-64H432z M64,427.549
			c-9.519-5.551-16-15.758-16-27.549s6.481-21.999,16-27.549V427.549z"/>
	</g>
</g>
<g>
	<g>
		<path d="M424,120v-16H80c-22.055,0-40,17.945-40,40s17.945,40,40,40h344v-16H88v-48H424z M72,166.525
			c-9.292-3.313-16-12.11-16-22.525s6.708-19.213,16-22.526V166.525z"/>
	</g>
</g>
<g>
	<g>
		<path d="M408,280v-16H40c-4.422,0-8,3.582-8,8v32c0,4.418,3.578,8,8,8h368v-16H48v-16H408z"/>
	</g>
</g>
<g>
	<g>
		<path d="M440,40V24H72c-4.422,0-8,3.582-8,8v32c0,4.418,3.578,8,8,8h368V56H80V40H440z"/>
	</g>
</g>
<g>
</g>
<g>
</g>
<g>
</g>
<g>
</g>
<g>
</g>
<g>
</g>
<g>
</g>
<g>
</g>
<g>
</g>
<g>
</g>
<g>
</g>
<g>
</g>
<g>
</g>
<g>
</g>
<g>
</g>
</svg>
